<svg width="865" height="269" viewBox="0 0 865 269" fill="none" xmlns="http://www.w3.org/2000/svg">
<path d="M49.7826 263.605H0V28H49.7826L151.484 180.798C151.046 172.036 150.827 162.178 150.827 151.224V28H200.609V263.605H150.827L49.1254 110.807C49.5636 119.569 49.7826 129.427 49.7826 140.381V263.605Z" fill="black"/>
<path d="M353.907 256.54C340.106 264.426 324.388 268.37 306.753 268.37C289.118 268.37 273.4 264.426 259.599 256.54C245.798 248.654 235.228 238.084 227.889 224.83C220.551 211.467 216.881 196.68 216.881 180.47C216.881 164.259 220.551 149.527 227.889 136.273C235.228 122.91 245.798 112.34 259.599 104.563C273.4 96.677 289.118 92.7339 306.753 92.7339C324.388 92.7339 340.106 96.677 353.907 104.563C367.708 112.34 378.278 122.91 385.617 136.273C392.955 149.527 396.625 164.259 396.625 180.47C396.625 196.68 392.955 211.467 385.617 224.83C378.278 238.084 367.708 248.654 353.907 256.54ZM276.193 212.344C284.299 220.449 294.485 224.502 306.753 224.502C319.021 224.502 329.207 220.449 337.313 212.344C345.418 204.238 349.471 193.614 349.471 180.47C349.471 167.326 345.418 156.701 337.313 148.596C329.207 140.49 319.021 136.437 306.753 136.437C294.485 136.437 284.299 140.49 276.193 148.596C268.088 156.701 264.035 167.326 264.035 180.47C264.035 193.614 268.088 204.238 276.193 212.344Z" fill="black"/>
<path d="M458.572 259.662C452.876 265.467 445.921 268.37 437.706 268.37C429.491 268.37 422.481 265.467 416.676 259.662C410.871 253.857 407.968 246.846 407.968 238.632C407.968 230.417 410.871 223.461 416.676 217.766C422.481 211.96 429.491 209.058 437.706 209.058C445.921 209.058 452.876 211.96 458.572 217.766C464.377 223.461 467.28 230.417 467.28 238.632C467.28 246.846 464.377 253.857 458.572 259.662Z" fill="black"/>
<path d="M647.358 184.248V191.642H523.97C524.955 202.924 529.172 212.015 536.621 218.916C544.178 225.816 553.16 229.266 563.566 229.266C573.095 229.266 581.201 227.021 587.882 222.53C594.564 217.93 598.945 211.796 601.026 204.129H646.044C641.991 224.502 632.736 240.329 618.277 251.611C603.929 262.783 585.691 268.37 563.566 268.37C546.588 268.37 531.473 264.481 518.219 256.704C504.966 248.928 494.779 238.412 487.66 225.159C480.649 211.796 477.144 196.9 477.144 180.47C477.144 163.602 481.033 148.431 488.81 134.959C496.696 121.486 507.156 111.081 520.191 103.742C533.335 96.4032 547.684 92.7339 563.237 92.7339C589.744 92.7339 610.391 100.62 625.178 116.393C639.965 132.166 647.358 154.784 647.358 184.248ZM564.059 129.044C555.515 129.044 547.848 131.508 541.057 136.437C534.266 141.366 529.337 147.993 526.27 156.318H603.326C600.807 147.774 596.207 141.093 589.525 136.273C582.953 131.454 574.464 129.044 564.059 129.044Z" fill="black"/>
<path d="M739.865 268.37C724.531 268.37 710.62 264.481 698.133 256.704C685.756 248.818 676.062 238.193 669.052 224.83C662.152 211.358 658.702 196.571 658.702 180.47C658.702 164.368 662.207 149.636 669.217 136.273C676.227 122.91 686.03 112.34 698.626 104.563C711.332 96.677 725.517 92.7339 741.18 92.7339C752.352 92.7339 762.101 94.4864 770.425 97.9914C778.749 101.387 785.267 105.878 789.977 111.464V28H837.13V263.605H793.263V243.396C780.776 260.045 762.977 268.37 739.865 268.37ZM718.342 212.344C726.776 220.449 737.182 224.502 749.559 224.502C761.936 224.502 772.287 220.449 780.612 212.344C789.046 204.129 793.263 193.504 793.263 180.47C793.263 167.435 789.046 156.865 780.612 148.76C772.287 140.545 761.936 136.437 749.559 136.437C737.182 136.437 726.776 140.545 718.342 148.76C710.018 156.865 705.855 167.435 705.855 180.47C705.855 193.504 710.018 204.129 718.342 212.344Z" fill="black"/>
<path d="M865 21.6485L857.735 9.0824C855.479 10.3807 846.05 17.4134 840.254 23.1323C842.31 15.2495 843.685 3.56445 843.685 0.967773H829.172C829.172 3.56445 830.547 15.265 832.603 23.1323C826.807 17.4134 817.363 10.3807 815.122 9.0824L807.857 21.6485C810.114 22.9468 820.918 27.6147 828.77 29.7631C820.918 31.927 810.114 36.5794 807.857 37.8777L815.122 50.4438C817.379 49.1455 826.807 42.1128 832.603 36.3939C830.547 44.2767 829.172 55.9618 829.172 58.5585H843.685C843.685 55.9618 842.31 44.2613 840.254 36.3939C846.05 42.1128 855.494 49.1455 857.735 50.4438L865 37.8777C862.743 36.5794 851.939 31.9116 844.087 29.7631C851.939 27.5992 862.743 22.9468 865 21.6485Z" fill="#B5FF3B"/>
</svg>
