<svg width="865" height="270" viewBox="0 0 865 270" fill="none" xmlns="http://www.w3.org/2000/svg">
<path d="M49.7826 263.975H0V28.3696H49.7826L151.484 181.168C151.046 172.405 150.827 162.547 150.827 151.594V28.3696H200.609V263.975H150.827L49.1254 111.176C49.5636 119.939 49.7826 129.797 49.7826 140.75V263.975Z" fill="black"/>
<path d="M458.572 260.031C452.876 265.837 445.921 268.739 437.706 268.739C429.491 268.739 422.481 265.837 416.676 260.031C410.871 254.226 407.968 247.216 407.968 239.001C407.968 230.786 410.871 223.831 416.676 218.135C422.481 212.33 429.491 209.427 437.706 209.427C445.921 209.427 452.876 212.33 458.572 218.135C464.377 223.831 467.28 230.786 467.28 239.001C467.28 247.216 464.377 254.226 458.572 260.031Z" fill="black"/>
<path d="M647.358 184.618V192.012H523.97C524.955 203.293 529.172 212.385 536.621 219.285C544.178 226.186 553.16 229.636 563.566 229.636C573.095 229.636 581.201 227.391 587.882 222.9C594.564 218.299 598.945 212.166 601.026 204.498H646.044C641.991 224.871 632.736 240.699 618.277 251.981C603.929 263.153 585.691 268.739 563.566 268.739C546.588 268.739 531.473 264.851 518.219 257.074C504.966 249.297 494.779 238.782 487.66 225.529C480.649 212.166 477.144 197.269 477.144 180.839C477.144 163.971 481.033 148.801 488.81 135.328C496.696 121.856 507.156 111.45 520.191 104.112C533.335 96.7728 547.684 93.1035 563.237 93.1035C589.744 93.1035 610.391 100.99 625.178 116.763C639.965 132.535 647.358 155.154 647.358 184.618ZM564.059 129.414C555.515 129.414 547.848 131.878 541.057 136.807C534.266 141.736 529.337 148.363 526.27 156.687H603.326C600.807 148.144 596.207 141.462 589.525 136.643C582.953 131.823 574.464 129.414 564.059 129.414Z" fill="black"/>
<path d="M739.865 268.739C724.531 268.739 710.62 264.851 698.133 257.074C685.756 249.188 676.062 238.563 669.052 225.2C662.152 211.727 658.702 196.941 658.702 180.839C658.702 164.738 662.207 150.006 669.217 136.643C676.227 123.28 686.03 112.71 698.626 104.933C711.332 97.0467 725.517 93.1035 741.18 93.1035C752.352 93.1035 762.101 94.856 770.425 98.3611C778.749 101.757 785.267 106.247 789.977 111.834V28.3696H837.13V263.975H793.263V243.766C780.776 260.415 762.977 268.739 739.865 268.739ZM718.342 212.713C726.776 220.819 737.182 224.871 749.559 224.871C761.936 224.871 772.287 220.819 780.612 212.713C789.046 204.498 793.263 193.874 793.263 180.839C793.263 167.805 789.046 157.235 780.612 149.13C772.287 140.915 761.936 136.807 749.559 136.807C737.182 136.807 726.776 140.915 718.342 149.13C710.018 157.235 705.855 167.805 705.855 180.839C705.855 193.874 710.018 204.498 718.342 212.713Z" fill="black"/>
<path fill-rule="evenodd" clip-rule="evenodd" d="M382.014 248.787L378.857 207.306L351.344 141.968L348.294 144.779L336.612 122.763L312.991 140.534L313.667 134.202L299.04 140.038L228.13 168.331L307.049 116.45L222.776 116.81L228.13 168.331L225.199 215.964L260.695 221.604L279.591 252.106L317.653 232.071L382.014 248.787Z" fill="#9747FF"/>
<path d="M307.049 116.45L228.13 168.331L299.04 140.038L307.049 116.45Z" fill="#9747FF"/>
<path d="M225.199 215.964L313.667 134.202M225.199 215.964L228.13 168.331M225.199 215.964L260.695 221.604M303.597 228.421L351.344 141.968M303.597 228.421L308.632 181.311M303.597 228.421L317.653 232.071M303.597 228.421L279.591 252.106M303.597 228.421L289.297 226.149M382.014 248.787L351.344 141.968M382.014 248.787L378.857 207.306L351.344 141.968M382.014 248.787L317.653 232.071M351.344 141.968L348.294 144.779M313.667 134.202L312.991 140.534M313.667 134.202L299.04 140.038M308.632 181.311L336.612 122.763M308.632 181.311L348.294 144.779M308.632 181.311L312.991 140.534M336.612 122.763L348.294 144.779M336.612 122.763L312.991 140.534M228.13 168.331L222.776 116.81L307.049 116.45M228.13 168.331L307.049 116.45M228.13 168.331L299.04 140.038M307.049 116.45L299.04 140.038M279.591 252.106L317.653 232.071M279.591 252.106L289.297 226.149M279.591 252.106L260.695 221.604M289.297 226.149L260.695 221.604" stroke="black" stroke-width="8.10642" stroke-linejoin="round"/>
<path d="M865 21.6485L857.735 9.0824C855.479 10.3807 846.05 17.4134 840.254 23.1323C842.31 15.2495 843.685 3.56445 843.685 0.967773H829.172C829.172 3.56445 830.547 15.265 832.603 23.1323C826.807 17.4134 817.363 10.3807 815.122 9.0824L807.857 21.6485C810.114 22.9468 820.918 27.6147 828.77 29.7631C820.918 31.927 810.114 36.5794 807.857 37.8777L815.122 50.4438C817.379 49.1455 826.807 42.1128 832.603 36.3939C830.547 44.2767 829.172 55.9618 829.172 58.5585H843.685C843.685 55.9618 842.31 44.2613 840.254 36.3939C846.05 42.1128 855.494 49.1455 857.735 50.4438L865 37.8777C862.743 36.5794 851.939 31.9116 844.087 29.7631C851.939 27.5992 862.743 22.9468 865 21.6485Z" fill="#B5FF3B"/>
</svg>
